<?xml version="1.0" standalone="no"?>
<!DOCTYPE svg PUBLIC "-//W3C//DTD SVG 20010904//EN"
 "http://www.w3.org/TR/2001/REC-SVG-20010904/DTD/svg10.dtd">
<svg version="1.0" xmlns="http://www.w3.org/2000/svg"
 width="720.000000pt" height="720.000000pt" viewBox="0 0 720.000000 720.000000"
 preserveAspectRatio="xMidYMid meet">
<metadata>
Created by potrace 1.11, written by Peter Selinger 2001-2013
</metadata>
<g transform="translate(0.000000,720.000000) scale(0.100000,-0.100000)"
fill="#000000" stroke="none">
<path d="M2684 6689 l-122 -39 41 -117 c22 -65 73 -217 114 -338 94 -277 190
-558 388 -1140 86 -253 203 -597 260 -765 57 -168 180 -532 275 -810 94 -278
205 -602 245 -720 40 -118 95 -281 123 -363 l51 -147 -67 -1 c-109 0 -232 -11
-339 -30 -138 -24 -175 -28 -298 -33 -187 -8 -271 -34 -380 -118 -92 -72 -203
-227 -230 -323 -19 -67 -26 -138 -30 -319 -2 -83 -7 -187 -11 -231 -16 -181 7
-294 90 -435 78 -133 180 -218 318 -264 218 -73 430 -49 657 75 362 198 589
456 701 798 42 128 54 210 47 315 -7 109 -19 151 -132 461 -48 132 -127 355
-175 495 -49 140 -130 374 -180 520 -149 431 -386 1116 -554 1605 -48 138 -91
260 -96 273 -6 13 -10 25 -10 28 0 9 224 2 340 -12 317 -36 549 -116 755 -262
100 -71 283 -252 359 -355 164 -221 275 -477 292 -675 13 -141 7 -694 -12
-1083 l-5 -106 89 15 90 16 16 100 c9 56 18 124 22 151 3 28 7 57 9 65 2 8 7
51 11 95 3 44 8 82 9 85 2 3 6 53 10 110 4 58 9 114 11 125 3 11 6 137 9 280
8 485 -31 648 -237 993 -110 183 -253 349 -413 479 -178 143 -516 352 -765
470 -154 74 -306 150 -365 183 -204 114 -403 299 -536 498 -69 103 -175 309
-220 429 -13 35 -26 63 -29 62 -3 0 -60 -18 -126 -40z"/>
<path d="M3174 3158 c-23 -5 -52 -20 -65 -34 -23 -25 -24 -31 -24 -177 0 -84
3 -186 7 -227 10 -93 53 -249 85 -306 29 -52 85 -101 129 -113 43 -12 135 -2
220 24 28 8 80 18 115 21 107 9 149 44 154 128 8 129 -68 276 -248 481 -135
154 -265 225 -373 203z"/>
<path d="M2394 3015 c-66 -28 -104 -101 -104 -198 0 -142 60 -382 111 -445 13
-16 59 -46 102 -67 42 -20 109 -61 147 -92 78 -60 108 -68 179 -47 71 21 122
81 156 182 51 156 8 288 -141 437 -173 173 -360 268 -450 230z"/>
<path d="M1932 2370 c-43 -27 -62 -74 -62 -153 0 -140 66 -310 155 -399 68
-68 136 -108 277 -165 136 -56 192 -61 234 -23 54 50 132 186 138 242 4 36
-26 174 -47 213 -32 63 -98 111 -162 119 -22 3 -54 8 -72 10 -34 4 -113 45
-234 120 -63 39 -87 49 -135 52 -48 4 -65 1 -92 -16z"/>
<path d="M1975 1602 c-81 -23 -117 -82 -116 -191 1 -144 74 -314 181 -422 157
-159 346 -180 473 -53 67 68 81 129 64 284 -11 98 -16 120 -41 176 -44 97
-107 136 -296 183 -150 38 -201 42 -265 23z"/>
</g>
</svg>
